<svg xmlns="http://www.w3.org/2000/svg" width="85.311" height="94.073" viewBox="0 0 85.311 94.073"><g transform="translate(-33 -10)"><path d="M423.184,134.551a4.232,4.232,0,1,0,4.231,4.232,4.232,4.232,0,0,0-4.231-4.232Zm0,6.169a1.937,1.937,0,1,1,1.936-1.936,1.937,1.937,0,0,1-1.936,1.936Z" transform="translate(-312.123 -100.726)" fill="#29abe2"/><path d="M162.911,38.209a4.985,4.985,0,1,0-4.983-4.985A4.985,4.985,0,0,0,162.911,38.209Zm0-7.675a2.69,2.69,0,1,1-2.688,2.69A2.69,2.69,0,0,1,162.911,30.533Z" transform="translate(-101.031 -14.749)" fill="#29abe2"/><path d="M242.564,210.755a4.983,4.983,0,1,0-4.984,4.985A4.983,4.983,0,0,0,242.564,210.755Zm-4.983,2.69a2.69,2.69,0,1,1,2.688-2.69,2.69,2.69,0,0,1-2.688,2.69Z" transform="translate(-161.417 -158.325)" fill="#29abe2"/><path d="M65.575,119.625a4.985,4.985,0,1,0-4.983-4.985A4.985,4.985,0,0,0,65.575,119.625Zm0-7.675a2.69,2.69,0,1,1-2.688,2.69A2.69,2.69,0,0,1,65.575,111.949Z" transform="translate(-22.314 -80.591)" fill="#29abe2"/><path d="M118.3,37.775a7.153,7.153,0,0,0-7.045-6.754,6.939,6.939,0,0,0-4.633,1.786,47.9,47.9,0,0,0-13.654-9.191,43.557,43.557,0,0,0-17.72-4.077,44.589,44.589,0,0,0-4.7.292,8.279,8.279,0,0,0,.062-1.689,8.49,8.49,0,0,0-16.966,0,8.936,8.936,0,0,0,1.779,5.821l.237.317A57.647,57.647,0,0,0,49.6,28.226,8.387,8.387,0,0,0,43.5,25.574a8.618,8.618,0,0,0-8.483,8.139A8.938,8.938,0,0,0,36.8,39.534l1.368,1.83A46.4,46.4,0,0,0,33,61.826a42.247,42.247,0,1,0,84.493,0A59.777,59.777,0,0,0,114.728,45.4l2.1-2.8A7.26,7.26,0,0,0,118.3,37.775ZM55.929,18.29a6.2,6.2,0,0,1,12.385,0,6.463,6.463,0,0,1-1.327,4.292l-4.866,6.509-4.858-6.5A6.633,6.633,0,0,1,55.929,18.29ZM37.31,33.864a6.2,6.2,0,0,1,12.385,0,6.461,6.461,0,0,1-1.327,4.292L43.5,44.668l-4.857-6.5a6.632,6.632,0,0,1-1.335-4.307Zm2.4,9.559,2.878,3.849a1.148,1.148,0,0,0,1.838,0l5.784-7.737a8.692,8.692,0,0,0,.737-9.45,55.133,55.133,0,0,1,6.1-3.952L61.2,31.7a1.148,1.148,0,0,0,1.838,0l5.784-7.737a9.192,9.192,0,0,0,1.025-1.734c.477-.061.953-.118,1.423-.166l4.82,6.954a4.591,4.591,0,0,1-.137,5.433L74.6,36.216a3.124,3.124,0,0,1-2.86,1.189l-1.544-.2a5.6,5.6,0,0,0-5.539,2.72,3.155,3.155,0,0,1-3.12,1.534l-3.566-.453a5.785,5.785,0,0,0-5.547,2.51,5.147,5.147,0,0,0-.087,5.637l2.356,3.723A4.8,4.8,0,0,0,58.743,55.1a4.74,4.74,0,0,0,2.245-.563l2.426-1.3a5.809,5.809,0,0,1,4.509-.07A9.146,9.146,0,0,0,69.7,57.915l5.785,7.739a1.148,1.148,0,0,0,1.838,0l2.934-3.925.373.511c.158.22.327.437.5.645l2.946,3.47a1.5,1.5,0,0,1-.229,2.157l-4.464,3.433a7.18,7.18,0,0,0-2.5,3.6L75.4,80.375a3.009,3.009,0,0,1-.563,1.041l-1.448,1.743A8.479,8.479,0,0,0,71.47,87.72a2.284,2.284,0,0,1-1.387,1.872,1.138,1.138,0,0,1-1.562-.864l-1.364-8.191a6.359,6.359,0,0,0-1.21-2.8l-5-6.558a5.785,5.785,0,0,1-.978-1.97l-1.649-5.955a6.281,6.281,0,0,0-4.379-4.364l-.358-.1A4.606,4.606,0,0,1,51.647,57.7l-3.076-2.9a6.95,6.95,0,0,1-1.248-1.574,6.848,6.848,0,0,0-7.249-3.283,1.135,1.135,0,0,0-.133.034l-3.082,1a44.891,44.891,0,0,1,2.845-7.564Zm30.507,8.824a6.2,6.2,0,0,1,12.385,0,6.461,6.461,0,0,1-1.327,4.292L76.4,63.05l-4.858-6.5a6.632,6.632,0,0,1-1.335-4.307Zm44.986,9.58a39.951,39.951,0,1,1-79.9,0,39.554,39.554,0,0,1,.92-8.216l4.368-1.421a4.553,4.553,0,0,1,4.755,2.2A9.251,9.251,0,0,0,47,56.477l3.076,2.9a6.914,6.914,0,0,0,2.909,1.631l.358.1a3.975,3.975,0,0,1,2.77,2.763l1.649,5.956a8.071,8.071,0,0,0,1.364,2.749l5,6.558a4.055,4.055,0,0,1,.772,1.786l1.364,8.191a3.428,3.428,0,0,0,4.714,2.6,4.578,4.578,0,0,0,2.782-3.753,6.193,6.193,0,0,1,1.4-3.331L76.6,82.883a5.291,5.291,0,0,0,.991-1.833l1.487-4.83a4.9,4.9,0,0,1,1.7-2.455l4.466-3.433a3.794,3.794,0,0,0,.579-5.463L82.884,61.4c-.135-.16-.266-.326-.393-.5l-.8-1.09,1.412-1.888a8.754,8.754,0,0,0,1.779-5.82A8.475,8.475,0,0,0,68.1,50.806a8.069,8.069,0,0,0-5.771.408l-2.426,1.3a2.5,2.5,0,0,1-3.277-.863l-2.356-3.724a2.852,2.852,0,0,1,.048-3.124,3.5,3.5,0,0,1,3.357-1.519l3.566.453a5.445,5.445,0,0,0,5.388-2.648A3.3,3.3,0,0,1,69.9,39.484l1.544.2a5.428,5.428,0,0,0,4.97-2.066l1.362-1.768a6.878,6.878,0,0,0,.2-8.141L73.93,21.865c.464-.019.906-.031,1.317-.031A41.244,41.244,0,0,1,92.02,25.708a48.087,48.087,0,0,1,5.1,2.7l-3.083,5.285a4.3,4.3,0,0,0,.5,4.956,5.468,5.468,0,0,0,3.452,1.831l.559.069a2.817,2.817,0,0,1,2.349,1.979,2.713,2.713,0,0,1-.8,2.812l-5.537,4.9A5.293,5.293,0,0,0,92.781,54.2v1.3a4.587,4.587,0,0,0,2.106,3.869,2.533,2.533,0,0,1,1.152,1.886l.13,1.3a4.236,4.236,0,0,0,4.227,3.829h3.241a6.912,6.912,0,0,0,6.328-4.136l.195-.444a2.554,2.554,0,0,1,2.236-1.536l.76-.034q.186-.008.37-.027l1.617-.163c.036.629.055,1.23.055,1.791Zm-.246-4.081-1.656.167c-.081.008-.162.014-.244.018l-.762.035a4.835,4.835,0,0,0-4.234,2.908l-.195.444a4.616,4.616,0,0,1-4.226,2.763H100.4a1.948,1.948,0,0,1-1.943-1.762l-.13-1.3a4.816,4.816,0,0,0-2.19-3.586,2.3,2.3,0,0,1-1.056-1.941v-1.3a3,3,0,0,1,1.01-2.244l5.537-4.9a5.015,5.015,0,0,0,1.473-5.2,5.114,5.114,0,0,0-4.266-3.593l-.559-.069a3.175,3.175,0,0,1-2.005-1.063,2,2,0,0,1-.237-2.3l3.03-5.193a42.922,42.922,0,0,1,6.108,4.957,7.3,7.3,0,0,0-.958,3.175,7.411,7.411,0,0,0,1.474,4.828l4.651,6.219a1.148,1.148,0,0,0,1.838,0l.855-1.144a62.977,62.977,0,0,1,1.923,10.067Zm.034-16.519-3.732,4.99-3.723-4.979a5.1,5.1,0,0,1-1.031-3.314,4.756,4.756,0,0,1,9.508,0,4.966,4.966,0,0,1-1.023,3.3Z"/></g></svg>