<svg xmlns="http://www.w3.org/2000/svg" width="99.289" height="87.995" viewBox="0 0 99.289 87.995"><g transform="translate(1974.734 -818.565)"><path d="M0,17.007a38.58,38.58,0,0,1,65.535,40.62" transform="matrix(0.996, 0.087, -0.087, 0.996, -1947.363, 820.241)" fill="none" stroke="#05183a" stroke-linecap="round" stroke-miterlimit="10" stroke-width="3"/><path d="M0,14.584A38.8,38.8,0,0,1,10.862,3.87,38.393,38.393,0,0,1,18.5,0" transform="translate(-1894.737 904.298) rotate(-170)" fill="none" stroke="#29abe2" stroke-linecap="round" stroke-miterlimit="10" stroke-width="3"/><g transform="translate(-1974.234 819.082)"><g transform="translate(9.858 19.652)"><path d="M79.089,19.652a8.122,8.122,0,0,0-8.153,8.062l-.3,41.8,4.447.032.3-41.817A3.673,3.673,0,0,1,79.089,24.1h44.692V19.652Z" transform="translate(-70.64 -19.652)" fill="#05183a" stroke="#fff" stroke-width="1"/></g><g transform="translate(0 19.652)"><path d="M63,19.652A8.459,8.459,0,0,0,54.55,28.1V75.017a6.152,6.152,0,0,1-12.3,0V69.606a2.223,2.223,0,0,0-2.224-2.224H2.224A2.223,2.223,0,0,0,0,69.606v5.411a10.611,10.611,0,0,0,10.6,10.6V81.169a6.159,6.159,0,0,1-6.152-6.152V71.83H37.8v3.187a10.6,10.6,0,1,0,21.2,0V40.256H69.225a2.223,2.223,0,0,0,2.224-2.224V28.1A8.459,8.459,0,0,0,63,19.652Zm4,16.157H59V28.1a4,4,0,1,1,8,0v7.708Z" transform="translate(0 -19.652)" fill="#05183a" stroke="#fff" stroke-width="1"/></g><g transform="translate(10.154 81.168)"><rect width="37.724" height="4.447" fill="#05183a" stroke="#fff" stroke-width="1"/></g><g transform="translate(19.344 32.029)"><path d="M152.334,108.349H140.846a2.224,2.224,0,0,0,0,4.447h11.488a2.224,2.224,0,0,0,0-4.447Z" transform="translate(-138.622 -108.349)" fill="#29abe2" stroke="#fff" stroke-width="1"/></g><g transform="translate(19.344 40.923)"><path d="M165.674,172.083H140.846a2.224,2.224,0,0,0,0,4.447h24.829a2.224,2.224,0,0,0,0-4.447Z" transform="translate(-138.622 -172.083)" fill="#29abe2" stroke="#fff" stroke-width="1"/></g><g transform="translate(19.344 49.817)"><path d="M165.674,235.817H140.846a2.224,2.224,0,0,0,0,4.447h24.829a2.224,2.224,0,0,0,0-4.447Z" transform="translate(-138.622 -235.817)" fill="#29abe2" stroke="#fff" stroke-width="1"/></g><g transform="translate(19.344 58.711)"><path d="M165.674,299.552H140.846a2.224,2.224,0,1,0,0,4.447h24.829a2.224,2.224,0,1,0,0-4.447Z" transform="translate(-138.622 -299.552)" fill="#29abe2" stroke="#fff" stroke-width="1"/></g></g></g></svg>