<svg xmlns="http://www.w3.org/2000/svg" width="104.633" height="87.995" viewBox="0 0 104.633 87.995"><g transform="translate(1980.078 -818.565)"><g transform="translate(-1934.267 841.507)"><g transform="translate(2.054 0.485)"><path d="M66.019,83.765V73.424H56V66.341H66.019V56h6.862V66.341H82.9v7.083H72.881V83.765Z" transform="translate(-56 -56)" fill="#29abe2" stroke="#29abe2" stroke-linejoin="round" stroke-width="3" opacity="0.562"/></g><path d="M17.253,27.75H10.5a2.426,2.426,0,0,1-2.423-2.423V19.675H2.423A2.426,2.426,0,0,1,0,17.253V10.5A2.426,2.426,0,0,1,2.423,8.075H8.074V2.423A2.426,2.426,0,0,1,10.5,0h6.755a2.426,2.426,0,0,1,2.423,2.423V8.074h5.652A2.426,2.426,0,0,1,27.75,10.5v6.755a2.426,2.426,0,0,1-2.423,2.423H19.675v5.652A2.426,2.426,0,0,1,17.253,27.75ZM2.423,9.158A1.34,1.34,0,0,0,1.084,10.5v6.755a1.34,1.34,0,0,0,1.339,1.339H8.616a.542.542,0,0,1,.542.542v6.194A1.34,1.34,0,0,0,10.5,26.666h6.755a1.34,1.34,0,0,0,1.339-1.339V19.133a.542.542,0,0,1,.542-.542h6.194a1.34,1.34,0,0,0,1.339-1.339V10.5a1.34,1.34,0,0,0-1.339-1.339H19.133a.542.542,0,0,1-.542-.542V2.423a1.34,1.34,0,0,0-1.339-1.339H10.5A1.34,1.34,0,0,0,9.158,2.423V8.616a.542.542,0,0,1-.542.542H2.423Z" transform="translate(0 0)" fill="#05183a" stroke="#05183a" stroke-width="1"/></g><path d="M0,17.007a38.58,38.58,0,0,1,65.535,40.62" transform="matrix(0.996, 0.087, -0.087, 0.996, -1947.363, 820.241)" fill="none" stroke="#05183a" stroke-linecap="round" stroke-miterlimit="10" stroke-width="3"/><path d="M0,14.584A38.8,38.8,0,0,1,10.862,3.87,38.393,38.393,0,0,1,18.5,0" transform="translate(-1894.737 904.298) rotate(-170)" fill="none" stroke="#29abe2" stroke-linecap="round" stroke-miterlimit="10" stroke-width="3"/><g transform="translate(-1980.078 792.112)"><path d="M1.566,313.9h13.47a1.566,1.566,0,0,0,1.566-1.566V310.8a33.437,33.437,0,0,1,11.949,2.985c3.988,1.6,8.112,3.245,14.679,3.245,2.885,0,7.166-.97,12.726-2.883a1.566,1.566,0,1,0-1.019-2.962c-5.231,1.8-9.169,2.713-11.706,2.713-5.964,0-9.632-1.467-13.515-3.021A36.376,36.376,0,0,0,16.6,307.668V291.754a19.29,19.29,0,0,0,3.065-1.2c3.088-1.409,6.587-3.007,11.384-.309l7.561,4.254a4.707,4.707,0,0,0,2.305.6H51.063a3.132,3.132,0,0,1,1.13,6.054,3.085,3.085,0,0,1-1.13.212H35.139a1.566,1.566,0,0,0,0,3.133H51.063a6.2,6.2,0,0,0,2.206-.4l.038-.012L72.8,296.882a3.134,3.134,0,0,1,2.476,5.753c-.268.129-.536.259-1.055.506-4.468,2.95-5.03,2.324-6.3,2.884a1.566,1.566,0,0,0,1.262,2.867c3.081-1.356,5.12-2.318,7.435-3.425a6.267,6.267,0,0,0-4.936-11.511l-14.441,5.338a6.166,6.166,0,0,0,.093-1.058,6.272,6.272,0,0,0-6.265-6.265H40.919a1.567,1.567,0,0,1-.769-.2l-7.562-4.254c-6.185-3.478-10.829-1.359-14.22.189a9.734,9.734,0,0,1-3.331,1.134H1.566A1.566,1.566,0,0,0,0,290.405v21.929A1.566,1.566,0,0,0,1.566,313.9Zm1.566-21.929H13.471v18.8H3.133Z" transform="translate(0 -209.955)" fill="#05183a"/><circle cx="1.566" cy="1.566" r="1.566" transform="translate(60.461 98.62)" fill="#05183a"/></g></g></svg>