<svg xmlns="http://www.w3.org/2000/svg" width="95.079" height="87.995" viewBox="0 0 95.079 87.995"><g transform="translate(1970.524 -818.565)"><path d="M0,17.007a38.58,38.58,0,0,1,65.535,40.62" transform="matrix(0.996, 0.087, -0.087, 0.996, -1947.363, 820.241)" fill="none" stroke="#05183a" stroke-linecap="round" stroke-miterlimit="10" stroke-width="3"/><path d="M0,14.584A38.8,38.8,0,0,1,10.862,3.87,38.393,38.393,0,0,1,18.5,0" transform="translate(-1894.737 904.298) rotate(-170)" fill="none" stroke="#29abe2" stroke-linecap="round" stroke-miterlimit="10" stroke-width="3"/><g transform="translate(-1970 819.613)"><g transform="translate(0 19.154)"><path d="M63.278,46.025,50.112,34.567a.907.907,0,1,0-1.191,1.368L61.253,46.667H55.662l-22.869-19.9a1.4,1.4,0,0,0-1.825,0L8.1,46.667H2.509l8.514-7.409h0l8.031-6.989h0L31.881,21.1l13.77,11.984a.907.907,0,1,0,1.191-1.368L32.793,19.494a1.4,1.4,0,0,0-1.825,0l-9.937,8.648V25.575a1.421,1.421,0,0,0-1.419-1.419H8.953a1.421,1.421,0,0,0-1.419,1.419v2.67a1.421,1.421,0,0,0,1.419,1.419H9.52v8.5L.483,46.025A1.4,1.4,0,0,0,1.4,48.481H7.529V64.6a.907.907,0,0,0,1.814,0V47.989L31.881,28.375,54.418,47.989V75.855a.476.476,0,0,1-.476.476c-4.114.27-21.626.138-44.123,0a.476.476,0,0,1-.476-.476V68.966a.907.907,0,1,0-1.814,0v6.889a2.292,2.292,0,0,0,2.29,2.29H53.942a2.292,2.292,0,0,0,2.29-2.29V48.481h6.127a1.4,1.4,0,0,0,.919-2.456ZM17.551,31.171l-6.217,5.41V29.664h6.217Zm-8.2-3.321V25.97h9.869v1.88H9.348Z" transform="translate(0 -19.154)" stroke="#05183a" stroke-width="1"/></g></g><g transform="translate(-1952.266 862.507)"><g transform="translate(2.054 0.485)"><path d="M66.019,83.765V73.424H56V66.341H66.019V56h6.862V66.341H82.9v7.083H72.881V83.765Z" transform="translate(-56 -56)" fill="#29abe2" stroke="#29abe2" stroke-linejoin="round" stroke-width="3" opacity="0.562"/></g><path d="M17.253,27.75H10.5a2.426,2.426,0,0,1-2.423-2.423V19.675H2.423A2.426,2.426,0,0,1,0,17.253V10.5A2.426,2.426,0,0,1,2.423,8.075H8.074V2.423A2.426,2.426,0,0,1,10.5,0h6.755a2.426,2.426,0,0,1,2.423,2.423V8.074h5.652A2.426,2.426,0,0,1,27.75,10.5v6.755a2.426,2.426,0,0,1-2.423,2.423H19.675v5.652A2.426,2.426,0,0,1,17.253,27.75ZM2.423,9.158A1.34,1.34,0,0,0,1.084,10.5v6.755a1.34,1.34,0,0,0,1.339,1.339H8.616a.542.542,0,0,1,.542.542v6.194A1.34,1.34,0,0,0,10.5,26.666h6.755a1.34,1.34,0,0,0,1.339-1.339V19.133a.542.542,0,0,1,.542-.542h6.194a1.34,1.34,0,0,0,1.339-1.339V10.5a1.34,1.34,0,0,0-1.339-1.339H19.133a.542.542,0,0,1-.542-.542V2.423a1.34,1.34,0,0,0-1.339-1.339H10.5A1.34,1.34,0,0,0,9.158,2.423V8.616a.542.542,0,0,1-.542.542H2.423Z" transform="translate(0 0)" fill="#05183a" stroke="#05183a" stroke-width="1"/></g></g></svg>