<svg xmlns="http://www.w3.org/2000/svg" width="101.486" height="93.769" viewBox="0 0 101.486 93.769"><g transform="translate(1976.931 -818.565)"><path d="M0,17.007a38.58,38.58,0,0,1,65.535,40.62" transform="matrix(0.996, 0.087, -0.087, 0.996, -1947.363, 820.241)" fill="none" stroke="#05183a" stroke-linecap="round" stroke-miterlimit="10" stroke-width="3"/><path d="M0,14.584A38.8,38.8,0,0,1,10.862,3.87,38.393,38.393,0,0,1,18.5,0" transform="translate(-1894.737 904.298) rotate(-170)" fill="none" stroke="#29abe2" stroke-linecap="round" stroke-miterlimit="10" stroke-width="3"/><g transform="translate(-1984.442 839.002)"><path d="M37.179,41.6c-9.139-.3-11.331-8.123-11.8-10.649a3.967,3.967,0,0,1-2.222-1.412,4.466,4.466,0,0,1-.832-3.04,4.193,4.193,0,0,1,.989-3.26,3.066,3.066,0,0,1,.739-.557,16.117,16.117,0,0,1-2.4-9.154c1.058-7.559,7.15-8.3,9.058-8.338A8.932,8.932,0,0,1,33.92,2.82,11.317,11.317,0,0,1,41.2,2.414c4.724,1.233,7.875,3.6,9.369,7.03,2.128,4.878.261,10.493-.811,13.014a3.1,3.1,0,0,1,1.107.635A4.064,4.064,0,0,1,51.991,26.5a4.459,4.459,0,0,1-.831,3.04,3.973,3.973,0,0,1-2.223,1.412C48.468,33.475,46.281,41.3,37.179,41.6ZM25.746,24.3a1.371,1.371,0,0,0-.979.349,2.415,2.415,0,0,0-.414,1.813,1.041,1.041,0,0,1-.007.2,2.5,2.5,0,0,0,.425,1.647,2.313,2.313,0,0,0,1.621.768,1.013,1.013,0,0,1,.891.92c.033.377.932,9.279,9.9,9.573C46.1,39.278,47,30.376,47.035,30a1.013,1.013,0,0,1,.891-.918,2.311,2.311,0,0,0,1.621-.768,2.507,2.507,0,0,0,.425-1.655,1.061,1.061,0,0,1-.007-.2,2.415,2.415,0,0,0-.457-1.86,1.537,1.537,0,0,0-1.1-.288,1.013,1.013,0,0,1-1.069-1.478c.037-.071,3.749-7.116,1.364-12.591-1.235-2.829-3.932-4.8-8.016-5.87a9.281,9.281,0,0,0-5.951.3A6.815,6.815,0,0,0,32,6.812a1,1,0,0,1-.9.405c-.262-.021-6.467-.423-7.44,6.514h0s-.281,5.518,2.915,8.861a1.013,1.013,0,0,1,.193,1.115.96.96,0,0,1-.96.6Z" transform="translate(0.183 0)" fill="#05183a" stroke="#05183a" stroke-width="0.8"/><path d="M48.19,24.21a1.013,1.013,0,0,1-1.013-.971c-.012-.262-.326-6.384-4.9-6.973a15.429,15.429,0,0,1-11.768-3.409c-1.292.972-4.269,3.926-3.7,10.225a1.013,1.013,0,0,1-2.014.183c-.84-9.243,5.095-12.451,5.347-12.582a1.013,1.013,0,0,1,1.169.166,13.533,13.533,0,0,0,10.768,3.4,1.133,1.133,0,0,1,.281-.01c5.152.536,6.725,6.071,6.837,8.917a1.013,1.013,0,0,1-.971,1.052Z" transform="translate(0.224 0.114)" fill="#05183a" stroke="#05183a" stroke-width="0.8"/><path d="M65.851,72.339H8.924a1.013,1.013,0,0,1-1.013-1.013v-11.3A13.485,13.485,0,0,1,21.388,46.571h1.946a1.013,1.013,0,1,1,0,2.027H21.388A11.457,11.457,0,0,0,9.938,60.029V70.312h54.9V60.029A11.444,11.444,0,0,0,53.406,48.6H51.321a1.013,1.013,0,0,1,0-2.027h2.085A13.477,13.477,0,0,1,66.864,60.029v11.3A1.013,1.013,0,0,1,65.851,72.339Z" transform="translate(0 0.594)" fill="#05183a" stroke="#05183a" stroke-width="0.8"/><path d="M40.355,72.383a1.013,1.013,0,0,1-1-1.164l4.1-27.14a1.013,1.013,0,0,1,1.294-.819l7.077,2.133a1.013,1.013,0,0,1,.616,1.419l-2.813,5.644,1.631,1.831a1.013,1.013,0,0,1,.1,1.207L41.217,71.9A1.013,1.013,0,0,1,40.355,72.383Zm4.929-26.845L42.1,66.629l7.147-11.552L47.66,53.3a1.013,1.013,0,0,1-.151-1.126l2.582-5.182Z" transform="translate(0.419 0.549)" fill="#05183a" stroke="#05183a" stroke-width="0.8"/><path d="M33.7,72.383a1.013,1.013,0,0,1-.862-.48L22.694,55.5a1.013,1.013,0,0,1,.1-1.207l1.631-1.831-2.813-5.644a1.013,1.013,0,0,1,.616-1.419l7.077-2.133a1.013,1.013,0,0,1,1.293.819l4.1,27.14a1.013,1.013,0,0,1-1,1.161Zm-8.889-17.31,7.147,11.552L28.775,45.538l-4.807,1.449,2.581,5.182A1.013,1.013,0,0,1,26.4,53.3Z" transform="translate(0.181 0.549)" fill="#05183a" stroke="#05183a" stroke-width="0.8"/><path d="M37.115,53.387a54.936,54.936,0,0,1-6.555-.4,1.013,1.013,0,1,1,.241-2.011,51.089,51.089,0,0,0,12.471,0,1.013,1.013,0,1,1,.253,2.011,51.171,51.171,0,0,1-6.41.4Z" transform="translate(0.289 0.652)" fill="#05183a" stroke="#05183a" stroke-width="0.8"/><path d="M44.425,45.322a1.013,1.013,0,0,1-.811-.41c-1.506-2.036-1.778-6.071-1.8-6.524a1.013,1.013,0,0,1,.953-1.07,1.024,1.024,0,0,1,1.07.953c.062,1.066.437,4.121,1.41,5.436a1.013,1.013,0,0,1-.811,1.615Z" transform="translate(0.452 0.471)" fill="#05183a" stroke="#05183a" stroke-width="0.8"/><path d="M29.507,45.322a1.013,1.013,0,0,1-.811-1.615c.975-1.317,1.349-4.371,1.411-5.436a1.015,1.015,0,1,1,2.027.118c-.025.453-.3,4.488-1.8,6.524a1.013,1.013,0,0,1-.823.41Z" transform="translate(0.274 0.47)" fill="#05183a" stroke="#05183a" stroke-width="0.8"/><path d="M57.209,58.135a1.013,1.013,0,0,1-1.013-.984c-.189-6.6-2.7-8.675-2.723-8.7a1.02,1.02,0,0,1-.176-1.419,1.007,1.007,0,0,1,1.4-.195c.134.1,3.3,2.561,3.522,10.25a1.013,1.013,0,0,1-.983,1.042Z" transform="translate(0.602 0.595)" fill="#29abe2" stroke="#29abe2" stroke-width="0.8"/><path d="M57.213,63.993a4.006,4.006,0,1,1,4-4.005,4.006,4.006,0,0,1-4,4.005Zm0-5.985a1.979,1.979,0,1,0,1.978,1.979,1.979,1.979,0,0,0-1.978-1.979Z" transform="translate(0.603 0.719)" fill="#29abe2" stroke="#29abe2" stroke-width="0.8"/><path d="M16.1,58.134a1.013,1.013,0,0,1-1.013-.941C14.53,49.416,18.816,46.93,19,46.828a1.013,1.013,0,0,1,1,1.765c-.154.091-3.344,2.06-2.891,8.457a1.013,1.013,0,0,1-.939,1.082Z" transform="translate(0.095 0.595)" fill="#29abe2" stroke="#29abe2" stroke-width="0.8"/><path d="M14.087,66.127a1.013,1.013,0,0,1-.811-.4A6.334,6.334,0,0,1,12.2,63.552a6.092,6.092,0,0,1,3.981-7.592,5.675,5.675,0,0,1,4.357.539A6.5,6.5,0,0,1,23.7,63.2a1.013,1.013,0,1,1-2-.332,4.481,4.481,0,0,0-2.154-4.6,3.667,3.667,0,0,0-2.815-.358,4.067,4.067,0,0,0-2.582,5.1,4.324,4.324,0,0,0,.736,1.49,1.013,1.013,0,0,1-.806,1.626Z" transform="translate(0.054 0.716)" fill="#29abe2" stroke="#29abe2" stroke-width="0.8"/><path d="M22.6,63.967a.808.808,0,0,1-.121-.006l-1.142-.135a1.014,1.014,0,1,1,.239-2.013l1.142.136a1.013,1.013,0,0,1-.119,2.02Z" transform="translate(0.167 0.797)" fill="#05183a" stroke="#05183a" stroke-width="0.8"/><path d="M14.072,66.033a1.013,1.013,0,0,1-.353-1.964l1.216-.449a1.014,1.014,0,0,1,.709,1.9l-1.216.45a1.013,1.013,0,0,1-.357.063Z" transform="translate(0.069 0.82)" fill="#05183a" stroke="#05183a" stroke-width="0.8"/></g><g transform="translate(-1924.266 845.507)"><g transform="translate(2.054 0.485)"><path d="M66.019,83.765V73.424H56V66.341H66.019V56h6.862V66.341H82.9v7.083H72.881V83.765Z" transform="translate(-56 -56)" fill="#29abe2" stroke="#29abe2" stroke-linejoin="round" stroke-width="3" opacity="0.562"/></g><path d="M17.253,27.75H10.5a2.426,2.426,0,0,1-2.423-2.423V19.675H2.423A2.426,2.426,0,0,1,0,17.253V10.5A2.426,2.426,0,0,1,2.423,8.075H8.074V2.423A2.426,2.426,0,0,1,10.5,0h6.755a2.426,2.426,0,0,1,2.423,2.423V8.074h5.652A2.426,2.426,0,0,1,27.75,10.5v6.755a2.426,2.426,0,0,1-2.423,2.423H19.675v5.652A2.426,2.426,0,0,1,17.253,27.75ZM2.423,9.158A1.34,1.34,0,0,0,1.084,10.5v6.755a1.34,1.34,0,0,0,1.339,1.339H8.616a.542.542,0,0,1,.542.542v6.194A1.34,1.34,0,0,0,10.5,26.666h6.755a1.34,1.34,0,0,0,1.339-1.339V19.133a.542.542,0,0,1,.542-.542h6.194a1.34,1.34,0,0,0,1.339-1.339V10.5a1.34,1.34,0,0,0-1.339-1.339H19.133a.542.542,0,0,1-.542-.542V2.423a1.34,1.34,0,0,0-1.339-1.339H10.5A1.34,1.34,0,0,0,9.158,2.423V8.616a.542.542,0,0,1-.542.542H2.423Z" transform="translate(0 0)" fill="#05183a" stroke="#05183a" stroke-width="1"/></g></g></svg>